<svg width="565" height="120" viewBox="0 0 565 120" fill="none" xmlns="http://www.w3.org/2000/svg">
<path d="M172.223 61H152.723L149.003 70H139.043L157.763 28H167.363L186.143 70H175.943L172.223 61ZM169.163 53.62L162.503 37.54L155.843 53.62H169.163Z" fill="#1F538F"/>
<path d="M235.26 70L227.16 58.3H226.68H218.22V70H208.5V28H226.68C230.4 28 233.62 28.62 236.34 29.86C239.1 31.1 241.22 32.86 242.7 35.14C244.18 37.42 244.92 40.12 244.92 43.24C244.92 46.36 244.16 49.06 242.64 51.34C241.16 53.58 239.04 55.3 236.28 56.5L245.7 70H235.26ZM235.08 43.24C235.08 40.88 234.32 39.08 232.8 37.84C231.28 36.56 229.06 35.92 226.14 35.92H218.22V50.56H226.14C229.06 50.56 231.28 49.92 232.8 48.64C234.32 47.36 235.08 45.56 235.08 43.24Z" fill="#1F538F"/>
<path d="M278.736 35.92H265.296V28H301.896V35.92H288.456V70H278.736V35.92Z" fill="#1F538F"/>
<path d="M342.825 28C348.265 28 352.545 29.3 355.665 31.9C358.785 34.5 360.345 38.08 360.345 42.64C360.345 47.2 358.785 50.78 355.665 53.38C352.545 55.98 348.265 57.28 342.825 57.28H332.445V70H326.445V28H342.825ZM342.645 52.06C346.445 52.06 349.345 51.26 351.345 49.66C353.345 48.02 354.345 45.68 354.345 42.64C354.345 39.6 353.345 37.28 351.345 35.68C349.345 34.04 346.445 33.22 342.645 33.22H332.445V52.06H342.645Z" fill="#1F538F"/>
<path d="M411.811 59.5H389.491L384.871 70H378.691L397.711 28H403.651L422.731 70H416.431L411.811 59.5ZM409.711 54.7L400.651 34.12L391.591 54.7H409.711Z" fill="#1F538F"/>
<path d="M475.076 70L466.016 57.1C464.896 57.18 464.016 57.22 463.376 57.22H452.996V70H446.996V28H463.376C468.816 28 473.096 29.3 476.216 31.9C479.336 34.5 480.896 38.08 480.896 42.64C480.896 45.88 480.096 48.64 478.496 50.92C476.896 53.2 474.616 54.86 471.656 55.9L481.616 70H475.076ZM463.196 52.12C466.996 52.12 469.896 51.3 471.896 49.66C473.896 48.02 474.896 45.68 474.896 42.64C474.896 39.6 473.896 37.28 471.896 35.68C469.896 34.04 466.996 33.22 463.196 33.22H452.996V52.12H463.196Z" fill="#1F538F"/>
<path d="M522.27 51.34L514.59 59.14V70H508.59V28H514.59V51.46L537.39 28H544.23L526.29 46.9L545.37 70H538.35L522.27 51.34Z" fill="#1F538F"/>
<path d="M147.863 97.06H139.743L137.963 101H136.863L143.303 87H144.323L150.763 101H149.663L147.863 97.06ZM147.483 96.2L143.803 88.12L140.143 96.2H147.483Z" fill="#1F538F"/>
<path d="M157.305 87H158.325V101H157.305V87Z" fill="#1F538F"/>
<path d="M186.18 101.2L184.16 99.08C183.587 99.7467 182.907 100.253 182.12 100.6C181.333 100.933 180.46 101.1 179.5 101.1C178.62 101.1 177.833 100.953 177.14 100.66C176.447 100.367 175.907 99.9533 175.52 99.42C175.133 98.8867 174.94 98.28 174.94 97.6C174.94 96.7867 175.213 96.0467 175.76 95.38C176.307 94.7 177.24 93.9733 178.56 93.2L178.54 93.16C177.847 92.44 177.373 91.84 177.12 91.36C176.867 90.8667 176.74 90.34 176.74 89.78C176.74 88.9133 177.04 88.22 177.64 87.7C178.24 87.18 179.047 86.92 180.06 86.92C181.007 86.92 181.753 87.16 182.3 87.64C182.86 88.1067 183.14 88.7533 183.14 89.58C183.14 90.2733 182.9 90.9 182.42 91.46C181.953 92.0067 181.127 92.6267 179.94 93.32L184.08 97.7C184.533 96.9 184.867 95.9533 185.08 94.86L185.9 95.12C185.633 96.4133 185.233 97.4867 184.7 98.34L186.78 100.54L186.18 101.2ZM177.68 89.78C177.68 90.22 177.793 90.6467 178.02 91.06C178.247 91.46 178.693 92.0133 179.36 92.72C180.467 92.08 181.227 91.54 181.64 91.1C182.053 90.6467 182.26 90.1467 182.26 89.6C182.26 89.0133 182.067 88.5533 181.68 88.22C181.293 87.8733 180.753 87.7 180.06 87.7C179.313 87.7 178.727 87.8933 178.3 88.28C177.887 88.6533 177.68 89.1533 177.68 89.78ZM179.54 100.26C181.247 100.26 182.587 99.6533 183.56 98.44L179.14 93.78C177.913 94.5 177.067 95.1333 176.6 95.68C176.147 96.2267 175.92 96.84 175.92 97.52C175.92 98.3333 176.253 98.9933 176.92 99.5C177.6 100.007 178.473 100.26 179.54 100.26Z" fill="#1F538F"/>
<path d="M212.302 101L208.962 96.32C208.469 96.3867 208.016 96.42 207.602 96.42H203.602V101H202.582V87H207.602C209.362 87 210.742 87.42 211.742 88.26C212.742 89.0867 213.242 90.24 213.242 91.72C213.242 92.8267 212.956 93.76 212.382 94.52C211.822 95.2667 211.016 95.7933 209.962 96.1L213.462 101H212.302ZM207.602 95.52C209.096 95.52 210.236 95.1933 211.022 94.54C211.809 93.8733 212.202 92.9333 212.202 91.72C212.202 90.5067 211.809 89.5733 211.022 88.92C210.236 88.2533 209.096 87.92 207.602 87.92H203.602V95.52H207.602Z" fill="#1F538F"/>
<path d="M224.737 101.08C223.75 101.08 222.857 100.853 222.057 100.4C221.27 99.9467 220.65 99.32 220.197 98.52C219.743 97.7067 219.517 96.7933 219.517 95.78C219.517 94.7667 219.743 93.86 220.197 93.06C220.65 92.2467 221.27 91.6133 222.057 91.16C222.857 90.7067 223.75 90.48 224.737 90.48C225.723 90.48 226.61 90.7067 227.397 91.16C228.197 91.6133 228.823 92.2467 229.277 93.06C229.73 93.86 229.957 94.7667 229.957 95.78C229.957 96.7933 229.73 97.7067 229.277 98.52C228.823 99.32 228.197 99.9467 227.397 100.4C226.61 100.853 225.723 101.08 224.737 101.08ZM224.737 100.18C225.537 100.18 226.25 99.9933 226.877 99.62C227.517 99.2467 228.017 98.7267 228.377 98.06C228.75 97.3933 228.937 96.6333 228.937 95.78C228.937 94.9267 228.75 94.1667 228.377 93.5C228.017 92.8333 227.517 92.3133 226.877 91.94C226.25 91.5667 225.537 91.38 224.737 91.38C223.937 91.38 223.217 91.5667 222.577 91.94C221.95 92.3133 221.45 92.8333 221.077 93.5C220.717 94.1667 220.537 94.9267 220.537 95.78C220.537 96.6333 220.717 97.3933 221.077 98.06C221.45 98.7267 221.95 99.2467 222.577 99.62C223.217 99.9933 223.937 100.18 224.737 100.18Z" fill="#1F538F"/>
<path d="M242.299 90.48C243.272 90.48 244.152 90.7067 244.939 91.16C245.726 91.6 246.339 92.2267 246.779 93.04C247.232 93.84 247.459 94.7533 247.459 95.78C247.459 96.8067 247.232 97.72 246.779 98.52C246.339 99.32 245.726 99.9467 244.939 100.4C244.152 100.853 243.272 101.08 242.299 101.08C241.366 101.08 240.519 100.86 239.759 100.42C239.012 99.9667 238.432 99.34 238.019 98.54V101H237.059V86.16H238.059V92.94C238.472 92.1667 239.052 91.5667 239.799 91.14C240.546 90.7 241.379 90.48 242.299 90.48ZM242.239 100.18C243.039 100.18 243.759 99.9933 244.399 99.62C245.039 99.2467 245.539 98.7267 245.899 98.06C246.272 97.3933 246.459 96.6333 246.459 95.78C246.459 94.9267 246.272 94.1667 245.899 93.5C245.539 92.8333 245.039 92.3133 244.399 91.94C243.759 91.5667 243.039 91.38 242.239 91.38C241.439 91.38 240.719 91.5667 240.079 91.94C239.452 92.3133 238.952 92.8333 238.579 93.5C238.219 94.1667 238.039 94.9267 238.039 95.78C238.039 96.6333 238.219 97.3933 238.579 98.06C238.952 98.7267 239.452 99.2467 240.079 99.62C240.719 99.9933 241.439 100.18 242.239 100.18Z" fill="#1F538F"/>
<path d="M258.635 101.08C257.648 101.08 256.755 100.853 255.955 100.4C255.168 99.9467 254.548 99.32 254.095 98.52C253.642 97.7067 253.415 96.7933 253.415 95.78C253.415 94.7667 253.642 93.86 254.095 93.06C254.548 92.2467 255.168 91.6133 255.955 91.16C256.755 90.7067 257.648 90.48 258.635 90.48C259.622 90.48 260.508 90.7067 261.295 91.16C262.095 91.6133 262.722 92.2467 263.175 93.06C263.628 93.86 263.855 94.7667 263.855 95.78C263.855 96.7933 263.628 97.7067 263.175 98.52C262.722 99.32 262.095 99.9467 261.295 100.4C260.508 100.853 259.622 101.08 258.635 101.08ZM258.635 100.18C259.435 100.18 260.148 99.9933 260.775 99.62C261.415 99.2467 261.915 98.7267 262.275 98.06C262.648 97.3933 262.835 96.6333 262.835 95.78C262.835 94.9267 262.648 94.1667 262.275 93.5C261.915 92.8333 261.415 92.3133 260.775 91.94C260.148 91.5667 259.435 91.38 258.635 91.38C257.835 91.38 257.115 91.5667 256.475 91.94C255.848 92.3133 255.348 92.8333 254.975 93.5C254.615 94.1667 254.435 94.9267 254.435 95.78C254.435 96.6333 254.615 97.3933 254.975 98.06C255.348 98.7267 255.848 99.2467 256.475 99.62C257.115 99.9933 257.835 100.18 258.635 100.18Z" fill="#1F538F"/>
<path d="M276.137 100.34C275.884 100.58 275.564 100.767 275.177 100.9C274.804 101.02 274.411 101.08 273.997 101.08C273.091 101.08 272.391 100.833 271.897 100.34C271.404 99.8333 271.158 99.1333 271.158 98.24V91.42H269.237V90.56H271.158V88.28H272.158V90.56H275.477V91.42H272.158V98.14C272.158 98.82 272.317 99.34 272.637 99.7C272.971 100.047 273.457 100.22 274.097 100.22C274.751 100.22 275.291 100.027 275.717 99.64L276.137 100.34Z" fill="#1F538F"/>
<path d="M282.926 90.56H283.926V101H282.926V90.56ZM283.426 88.02C283.2 88.02 283.006 87.9467 282.846 87.8C282.686 87.64 282.606 87.4467 282.606 87.22C282.606 86.9933 282.686 86.8 282.846 86.64C283.006 86.48 283.2 86.4 283.426 86.4C283.653 86.4 283.846 86.48 284.006 86.64C284.166 86.7867 284.246 86.9733 284.246 87.2C284.246 87.4267 284.166 87.62 284.006 87.78C283.846 87.94 283.653 88.02 283.426 88.02Z" fill="#1F538F"/>
<path d="M296.281 101.08C295.268 101.08 294.361 100.853 293.561 100.4C292.761 99.9467 292.134 99.32 291.681 98.52C291.228 97.7067 291.001 96.7933 291.001 95.78C291.001 94.7533 291.228 93.84 291.681 93.04C292.134 92.2267 292.761 91.6 293.561 91.16C294.361 90.7067 295.268 90.48 296.281 90.48C297.121 90.48 297.881 90.6467 298.561 90.98C299.254 91.3 299.814 91.7733 300.241 92.4L299.501 92.94C299.128 92.42 298.661 92.0333 298.101 91.78C297.554 91.5133 296.948 91.38 296.281 91.38C295.468 91.38 294.734 91.5667 294.081 91.94C293.441 92.3 292.934 92.8133 292.561 93.48C292.201 94.1467 292.021 94.9133 292.021 95.78C292.021 96.6467 292.201 97.4133 292.561 98.08C292.934 98.7467 293.441 99.2667 294.081 99.64C294.734 100 295.468 100.18 296.281 100.18C296.948 100.18 297.554 100.053 298.101 99.8C298.661 99.5333 299.128 99.14 299.501 98.62L300.241 99.16C299.814 99.7867 299.254 100.267 298.561 100.6C297.881 100.92 297.121 101.08 296.281 101.08Z" fill="#1F538F"/>
<path d="M309.875 101.08C309.035 101.08 308.235 100.953 307.475 100.7C306.715 100.447 306.122 100.127 305.695 99.74L306.155 98.94C306.581 99.3 307.128 99.6 307.795 99.84C308.475 100.08 309.182 100.2 309.915 100.2C310.968 100.2 311.741 100.027 312.235 99.68C312.741 99.3333 312.995 98.8533 312.995 98.24C312.995 97.8 312.855 97.4533 312.575 97.2C312.308 96.9467 311.975 96.76 311.575 96.64C311.175 96.52 310.622 96.3933 309.915 96.26C309.088 96.1133 308.422 95.9533 307.915 95.78C307.408 95.6067 306.975 95.3267 306.615 94.94C306.255 94.5533 306.075 94.02 306.075 93.34C306.075 92.5133 306.415 91.8333 307.095 91.3C307.788 90.7533 308.768 90.48 310.035 90.48C310.702 90.48 311.361 90.5733 312.015 90.76C312.668 90.9467 313.202 91.1933 313.615 91.5L313.155 92.3C312.728 91.9933 312.242 91.76 311.695 91.6C311.148 91.44 310.588 91.36 310.015 91.36C309.041 91.36 308.308 91.54 307.815 91.9C307.322 92.26 307.075 92.7333 307.075 93.32C307.075 93.7867 307.215 94.1533 307.495 94.42C307.775 94.6733 308.115 94.8667 308.515 95C308.928 95.12 309.501 95.2533 310.235 95.4C311.048 95.5467 311.702 95.7067 312.195 95.88C312.702 96.04 313.128 96.3067 313.475 96.68C313.822 97.0533 313.995 97.5667 313.995 98.22C313.995 99.0867 313.635 99.78 312.915 100.3C312.195 100.82 311.181 101.08 309.875 101.08Z" fill="#1F538F"/>
<path d="M332.922 87.92H327.882V87H338.982V87.92H333.942V101H332.922V87.92Z" fill="#1F538F"/>
<path d="M352.918 96.02H343.938C343.965 96.8333 344.171 97.56 344.558 98.2C344.945 98.8267 345.465 99.3133 346.118 99.66C346.785 100.007 347.531 100.18 348.358 100.18C349.038 100.18 349.665 100.06 350.238 99.82C350.825 99.5667 351.311 99.2 351.698 98.72L352.278 99.38C351.825 99.9267 351.251 100.347 350.558 100.64C349.878 100.933 349.138 101.08 348.338 101.08C347.298 101.08 346.371 100.853 345.558 100.4C344.745 99.9467 344.105 99.32 343.638 98.52C343.185 97.72 342.958 96.8067 342.958 95.78C342.958 94.7667 343.171 93.86 343.598 93.06C344.038 92.2467 344.638 91.6133 345.398 91.16C346.158 90.7067 347.011 90.48 347.958 90.48C348.905 90.48 349.751 90.7067 350.498 91.16C351.258 91.6 351.851 92.22 352.278 93.02C352.718 93.82 352.938 94.7267 352.938 95.74L352.918 96.02ZM347.958 91.36C347.225 91.36 346.565 91.5267 345.978 91.86C345.391 92.18 344.918 92.64 344.558 93.24C344.211 93.8267 344.011 94.4933 343.958 95.24H351.958C351.918 94.4933 351.718 93.8267 351.358 93.24C350.998 92.6533 350.525 92.1933 349.938 91.86C349.351 91.5267 348.691 91.36 347.958 91.36Z" fill="#1F538F"/>
<path d="M364.172 101.08C363.158 101.08 362.252 100.853 361.452 100.4C360.652 99.9467 360.025 99.32 359.572 98.52C359.118 97.7067 358.892 96.7933 358.892 95.78C358.892 94.7533 359.118 93.84 359.572 93.04C360.025 92.2267 360.652 91.6 361.452 91.16C362.252 90.7067 363.158 90.48 364.172 90.48C365.012 90.48 365.772 90.6467 366.452 90.98C367.145 91.3 367.705 91.7733 368.132 92.4L367.392 92.94C367.018 92.42 366.552 92.0333 365.992 91.78C365.445 91.5133 364.838 91.38 364.172 91.38C363.358 91.38 362.625 91.5667 361.972 91.94C361.332 92.3 360.825 92.8133 360.452 93.48C360.092 94.1467 359.912 94.9133 359.912 95.78C359.912 96.6467 360.092 97.4133 360.452 98.08C360.825 98.7467 361.332 99.2667 361.972 99.64C362.625 100 363.358 100.18 364.172 100.18C364.838 100.18 365.445 100.053 365.992 99.8C366.552 99.5333 367.018 99.14 367.392 98.62L368.132 99.16C367.705 99.7867 367.145 100.267 366.452 100.6C365.772 100.92 365.012 101.08 364.172 101.08Z" fill="#1F538F"/>
<path d="M380.05 90.48C381.356 90.48 382.39 90.86 383.15 91.62C383.91 92.38 384.29 93.4733 384.29 94.9V101H383.29V94.98C383.29 93.8067 382.99 92.9133 382.39 92.3C381.803 91.6867 380.976 91.38 379.91 91.38C378.683 91.38 377.716 91.7467 377.01 92.48C376.303 93.2133 375.95 94.2 375.95 95.44V101H374.95V86.16H375.95V92.74C376.31 92.02 376.843 91.4667 377.55 91.08C378.256 90.68 379.09 90.48 380.05 90.48Z" fill="#1F538F"/>
<path d="M397.507 90.48C398.813 90.48 399.847 90.86 400.607 91.62C401.367 92.38 401.747 93.4733 401.747 94.9V101H400.747V94.98C400.747 93.8067 400.447 92.9133 399.847 92.3C399.26 91.6867 398.433 91.38 397.367 91.38C396.14 91.38 395.173 91.7467 394.467 92.48C393.76 93.2133 393.407 94.2 393.407 95.44V101H392.407V90.56H393.367V92.82C393.727 92.0867 394.26 91.5133 394.967 91.1C395.687 90.6867 396.533 90.48 397.507 90.48Z" fill="#1F538F"/>
<path d="M413.963 101.08C412.977 101.08 412.083 100.853 411.283 100.4C410.497 99.9467 409.877 99.32 409.423 98.52C408.97 97.7067 408.743 96.7933 408.743 95.78C408.743 94.7667 408.97 93.86 409.423 93.06C409.877 92.2467 410.497 91.6133 411.283 91.16C412.083 90.7067 412.977 90.48 413.963 90.48C414.95 90.48 415.837 90.7067 416.623 91.16C417.423 91.6133 418.05 92.2467 418.503 93.06C418.957 93.86 419.183 94.7667 419.183 95.78C419.183 96.7933 418.957 97.7067 418.503 98.52C418.05 99.32 417.423 99.9467 416.623 100.4C415.837 100.853 414.95 101.08 413.963 101.08ZM413.963 100.18C414.763 100.18 415.477 99.9933 416.103 99.62C416.743 99.2467 417.243 98.7267 417.603 98.06C417.977 97.3933 418.163 96.6333 418.163 95.78C418.163 94.9267 417.977 94.1667 417.603 93.5C417.243 92.8333 416.743 92.3133 416.103 91.94C415.477 91.5667 414.763 91.38 413.963 91.38C413.163 91.38 412.443 91.5667 411.803 91.94C411.177 92.3133 410.677 92.8333 410.303 93.5C409.943 94.1667 409.763 94.9267 409.763 95.78C409.763 96.6333 409.943 97.3933 410.303 98.06C410.677 98.7267 411.177 99.2467 411.803 99.62C412.443 99.9933 413.163 100.18 413.963 100.18Z" fill="#1F538F"/>
<path d="M426.286 86.16H427.286V101H426.286V86.16Z" fill="#1F538F"/>
<path d="M439.58 101.08C438.594 101.08 437.7 100.853 436.9 100.4C436.114 99.9467 435.494 99.32 435.04 98.52C434.587 97.7067 434.36 96.7933 434.36 95.78C434.36 94.7667 434.587 93.86 435.04 93.06C435.494 92.2467 436.114 91.6133 436.9 91.16C437.7 90.7067 438.594 90.48 439.58 90.48C440.567 90.48 441.454 90.7067 442.24 91.16C443.04 91.6133 443.667 92.2467 444.12 93.06C444.574 93.86 444.8 94.7667 444.8 95.78C444.8 96.7933 444.574 97.7067 444.12 98.52C443.667 99.32 443.04 99.9467 442.24 100.4C441.454 100.853 440.567 101.08 439.58 101.08ZM439.58 100.18C440.38 100.18 441.094 99.9933 441.72 99.62C442.36 99.2467 442.86 98.7267 443.22 98.06C443.594 97.3933 443.78 96.6333 443.78 95.78C443.78 94.9267 443.594 94.1667 443.22 93.5C442.86 92.8333 442.36 92.3133 441.72 91.94C441.094 91.5667 440.38 91.38 439.58 91.38C438.78 91.38 438.06 91.5667 437.42 91.94C436.794 92.3133 436.294 92.8333 435.92 93.5C435.56 94.1667 435.38 94.9267 435.38 95.78C435.38 96.6333 435.56 97.3933 435.92 98.06C436.294 98.7267 436.794 99.2467 437.42 99.62C438.06 99.9933 438.78 100.18 439.58 100.18Z" fill="#1F538F"/>
<path d="M461.303 90.56V99.88C461.303 101.613 460.883 102.893 460.043 103.72C459.203 104.547 457.936 104.96 456.243 104.96C455.283 104.96 454.376 104.813 453.523 104.52C452.669 104.227 451.983 103.82 451.463 103.3L452.003 102.54C452.523 103.02 453.149 103.393 453.883 103.66C454.616 103.927 455.396 104.06 456.223 104.06C457.609 104.06 458.636 103.727 459.303 103.06C459.969 102.407 460.303 101.387 460.303 100V98.24C459.876 99 459.283 99.5867 458.523 100C457.763 100.413 456.909 100.62 455.963 100.62C454.989 100.62 454.103 100.407 453.303 99.98C452.516 99.54 451.896 98.9333 451.443 98.16C450.989 97.3867 450.763 96.5133 450.763 95.54C450.763 94.5667 450.989 93.6933 451.443 92.92C451.896 92.1467 452.516 91.5467 453.303 91.12C454.103 90.6933 454.989 90.48 455.963 90.48C456.923 90.48 457.789 90.6933 458.563 91.12C459.336 91.5467 459.929 92.1467 460.343 92.92V90.56H461.303ZM456.043 99.72C456.856 99.72 457.589 99.5467 458.243 99.2C458.896 98.84 459.403 98.3467 459.763 97.72C460.136 97.08 460.323 96.3533 460.323 95.54C460.323 94.7267 460.136 94.0067 459.763 93.38C459.403 92.7533 458.896 92.2667 458.243 91.92C457.589 91.56 456.856 91.38 456.043 91.38C455.229 91.38 454.496 91.56 453.843 91.92C453.203 92.2667 452.696 92.7533 452.323 93.38C451.963 94.0067 451.783 94.7267 451.783 95.54C451.783 96.3533 451.963 97.08 452.323 97.72C452.696 98.3467 453.203 98.84 453.843 99.2C454.496 99.5467 455.229 99.72 456.043 99.72Z" fill="#1F538F"/>
<path d="M477.916 90.56L472.556 102.42C472.156 103.34 471.689 103.993 471.156 104.38C470.636 104.767 470.016 104.96 469.296 104.96C468.816 104.96 468.362 104.88 467.936 104.72C467.522 104.56 467.169 104.327 466.876 104.02L467.376 103.26C467.909 103.807 468.556 104.08 469.316 104.08C469.822 104.08 470.256 103.94 470.616 103.66C470.976 103.38 471.309 102.9 471.616 102.22L472.176 100.96L467.476 90.56H468.536L472.716 99.9L476.896 90.56H477.916Z" fill="#1F538F"/>
<path d="M498.579 87C500.339 87 501.719 87.42 502.719 88.26C503.719 89.0867 504.219 90.24 504.219 91.72C504.219 93.1867 503.719 94.34 502.719 95.18C501.719 96.0067 500.339 96.42 498.579 96.42H494.579V101H493.559V87H498.579ZM498.579 95.5C500.072 95.5 501.212 95.1733 501.999 94.52C502.785 93.8667 503.179 92.9333 503.179 91.72C503.179 90.5067 502.785 89.5733 501.999 88.92C501.212 88.2533 500.072 87.92 498.579 87.92H494.579V95.5H498.579Z" fill="#1F538F"/>
<path d="M514.763 90.48C516.056 90.48 517.049 90.8133 517.743 91.48C518.436 92.1333 518.783 93.1 518.783 94.38V101H517.823V99.14C517.489 99.7533 517.003 100.233 516.363 100.58C515.723 100.913 514.956 101.08 514.063 101.08C512.903 101.08 511.983 100.807 511.303 100.26C510.636 99.7133 510.303 98.9933 510.303 98.1C510.303 97.2333 510.609 96.5333 511.223 96C511.849 95.4533 512.843 95.18 514.203 95.18H517.783V94.34C517.783 93.3667 517.516 92.6267 516.983 92.12C516.463 91.6133 515.696 91.36 514.683 91.36C513.989 91.36 513.323 91.48 512.683 91.72C512.056 91.96 511.523 92.28 511.083 92.68L510.583 91.96C511.103 91.4933 511.729 91.1333 512.463 90.88C513.196 90.6133 513.963 90.48 514.763 90.48ZM514.203 100.26C515.069 100.26 515.803 100.06 516.403 99.66C517.016 99.26 517.476 98.68 517.783 97.92V95.96H514.223C513.196 95.96 512.449 96.1467 511.983 96.52C511.529 96.8933 511.303 97.4067 511.303 98.06C511.303 98.74 511.556 99.28 512.063 99.68C512.569 100.067 513.283 100.26 514.203 100.26Z" fill="#1F538F"/>
<path d="M527.863 92.84C528.183 92.08 528.683 91.5 529.363 91.1C530.043 90.6867 530.869 90.48 531.843 90.48V91.46L531.603 91.44C530.443 91.44 529.536 91.8067 528.883 92.54C528.229 93.26 527.903 94.2667 527.903 95.56V101H526.903V90.56H527.863V92.84Z" fill="#1F538F"/>
<path d="M542.318 95.42L539.598 97.9V101H538.598V86.16H539.598V96.66L546.278 90.56H547.558L543.058 94.78L547.998 101H546.758L542.318 95.42Z" fill="#1F538F"/>
<path d="M86.7 28.4C88.2 28.9 89.6 29.8 90.8 31.1C93.9 34.5 98.7 35.8 101.5 36.2C100.5 38.9 99.2 43.7 100.6 48C101.1 49.6 101.2 51.1 101 52.6C102 53.4 102.7 54.4 103.2 55.5C104.3 52.9 104.4 49.9 103.4 47C102 42.8 104 37.6 104.7 36.1C105.2 34.9 104.4 33.4 103.1 33.3C101.5 33.1 96 32.3 93 29C91 26.7 88.3 25.3 85.5 24.9C86.2 26.1 86.6 27.2 86.7 28.4Z" fill="#E77F33"/>
<path d="M17.4016 47.2C16.4016 50.1 16.6016 53.2 17.7016 55.9C18.3016 54.9 19.1016 54.1 20.0016 53.4C19.6016 51.7 19.7016 50 20.3016 48.2C21.7016 43.8 20.4016 39 19.4016 36.4C22.2016 35.9 27.0016 34.7 30.1016 31.3C31.4016 29.9 32.9016 28.9 34.6016 28.5C34.8016 27.3 35.2016 26.2 35.8016 25.3C32.9016 25.6 30.1016 27 27.9016 29.4C24.9016 32.7 19.4016 33.6 17.8016 33.7C16.4016 33.8 15.6016 35.3 16.2016 36.5C16.8016 37.8 18.8016 43 17.4016 47.2Z" fill="#E77F33"/>
<path d="M78.6008 98.5C77.5008 98.5 76.4008 98.3 75.4008 97.8C74.1008 99.2 72.4008 100.2 70.3008 100.7C65.8008 101.6 62.3008 105.2 60.5008 107.4C58.7008 105.2 55.2008 101.6 50.7008 100.7C48.7008 100.3 47.0008 99.3 45.7008 97.9C44.8008 98.3 43.8008 98.5 42.7008 98.5C42.6008 98.5 42.4008 98.5 42.3008 98.5C44.1008 101.1 46.8008 103 50.1008 103.6C54.5008 104.5 57.9008 108.8 58.9008 110.1C59.7008 111.2 61.4008 111.2 62.2008 110.1C63.2008 108.8 66.6008 104.5 71.0008 103.6C74.1008 103 76.9008 101.1 78.6008 98.5Z" fill="#2B9E27"/>
<path d="M104.701 83.7C104.001 82.2 102.001 77.1 103.401 72.8C104.501 69.5 104.201 66.2 102.701 63.3C102.101 64.2 101.401 65 100.501 65.7C101.201 67.6 101.201 69.8 100.501 71.9C99.1008 76.3 100.401 81.1 101.401 83.7C98.6008 84.2 93.8008 85.4 90.7008 88.8C89.5008 90.1 88.1008 91 86.6008 91.6C86.4008 92.8 86.0008 93.9 85.3008 94.9C88.2008 94.5 90.9008 93.1 93.0008 90.8C96.0008 87.5 101.401 86.6 103.101 86.5C104.401 86.4 105.301 84.9 104.701 83.7Z" fill="#2B9E27"/>
<path d="M34.5997 91.7C32.8997 91.2 31.3997 90.3 30.0997 88.8C26.9997 85.4 22.1997 84.1 19.3997 83.7C20.3997 81 21.6997 76.2 20.2997 71.9C19.6997 70.1 19.5997 68.3 19.9997 66.7C19.0997 66 18.2997 65.2 17.6997 64.2C16.5997 66.9 16.3997 69.9 17.3997 72.9C18.7997 77.1 16.7997 82.3 16.0997 83.8C15.5997 85 16.3997 86.5 17.6997 86.6C19.2997 86.8 24.7997 87.6 27.7997 90.9C29.9997 93.3 32.7997 94.7 35.8997 95C35.2997 94 34.7997 92.9 34.5997 91.7Z" fill="#2B9E27"/>
<path d="M42.5992 21.2C43.6992 21.2 44.7992 21.4 45.7992 21.8C47.0992 20.5 48.6992 19.6 50.5992 19.2C55.0992 18.3 58.5992 14.7 60.3992 12.5C62.1992 14.7 65.6992 18.3 70.1992 19.2C72.1992 19.6 73.8992 20.5 75.0992 21.9C76.0992 21.4 77.1992 21.2 78.2992 21.2C76.4992 18.8 73.8992 17 70.6992 16.3C66.2992 15.4 62.8992 11.1 61.8992 9.8C61.0992 8.7 59.3992 8.7 58.5992 9.8C57.5992 11.1 54.1992 15.4 49.7992 16.3C46.5992 17 43.9992 18.7 42.1992 21.2C42.4992 21.2 42.5992 21.2 42.5992 21.2Z" fill="#E77F33"/>
<path d="M24.8984 64.5C22.3984 64.5 20.3984 62.5 20.3984 60C20.3984 57.5 22.3984 55.5 24.8984 55.5C27.3984 55.5 29.3984 57.5 29.3984 60C29.3984 62.5 27.3984 64.5 24.8984 64.5Z" fill="#1F538F"/>
<path d="M42.8008 33.9C40.3008 33.9 38.3008 31.9 38.3008 29.4C38.3008 26.9 40.3008 24.9 42.8008 24.9C45.3008 24.9 47.3008 26.9 47.3008 29.4C47.3008 31.9 45.3008 33.9 42.8008 33.9Z" fill="#E77F33"/>
<path d="M78.8008 33.9C76.3008 33.9 74.3008 31.9 74.3008 29.4C74.3008 26.9 76.3008 24.9 78.8008 24.9C81.3008 24.9 83.3008 26.9 83.3008 29.4C83.3008 31.9 81.2008 33.9 78.8008 33.9Z" fill="#E77F33"/>
<path d="M95.8984 63.5C93.3984 63.5 91.3984 61.5 91.3984 59C91.3984 56.5 93.3984 54.5 95.8984 54.5C98.3984 54.5 100.398 56.5 100.398 59C100.398 61.5 98.3984 63.5 95.8984 63.5Z" fill="#1F538F"/>
<path d="M78.8008 94.8C76.3008 94.8 74.3008 92.8 74.3008 90.3C74.3008 87.8 76.3008 85.8 78.8008 85.8C81.3008 85.8 83.3008 87.8 83.3008 90.3C83.3008 92.8 81.2008 94.8 78.8008 94.8Z" fill="#2B9E27"/>
<path d="M42.8008 94.8C40.3008 94.8 38.3008 92.8 38.3008 90.3C38.3008 87.8 40.3008 85.8 42.8008 85.8C45.3008 85.8 47.3008 87.8 47.3008 90.3C47.3008 92.8 45.3008 94.8 42.8008 94.8Z" fill="#2B9E27"/>
<path d="M76.7984 82.4V72.7L64.3984 80L72.7984 84.7C73.7984 83.5 75.1984 82.7 76.7984 82.4Z" fill="#1F538F"/>
<path d="M80.8008 48.3L90.0008 53.4C91.4008 52 93.2008 51 95.3008 50.9C93.6008 44.4 90.1008 38.6 85.4008 34C84.3008 35.6 82.7008 36.7 80.8008 37.2V48.3Z" fill="#1F538F"/>
<path d="M87.5992 59.1C87.5992 58.3 87.6992 57.6 87.8992 56.9L80.6992 52.9V65.7L87.8992 61.4C87.7992 60.7 87.5992 59.9 87.5992 59.1Z" fill="#1F538F"/>
<path d="M60.3992 77.7L76.7992 68V50.6L60.9992 41.8L32.6992 57.9C32.8992 58.6 32.9992 59.3 32.9992 60C32.9992 60.7 32.8992 61.4 32.6992 62.1L60.3992 77.7Z" fill="#1F538F"/>
<path d="M76.8 46.1V37.4C75.3 37 73.9 36.2 72.8 35.1L65 39.5L76.8 46.1Z" fill="#1F538F"/>
<path d="M30.7992 54.4L56.8992 39.6L48.6992 35C47.1992 36.6 45.0992 37.6 42.6992 37.6C39.6992 37.6 37.1992 36 35.6992 33.7C30.4992 38.5 26.7992 44.8 25.1992 51.9C27.3992 51.9 29.3992 52.9 30.7992 54.4Z" fill="#1F538F"/>
<path d="M70.7977 88.1L60.3977 82.3L50.4977 88.1C50.6977 88.8 50.7977 89.6 50.7977 90.3C50.7977 91.8 50.3977 93.2 49.5977 94.5C52.9977 95.5 56.4977 96.1 60.1977 96.1C64.0977 96.1 67.8977 95.5 71.3977 94.3C70.6977 93.1 70.3977 91.8 70.3977 90.3C70.4977 89.6 70.5977 88.8 70.7977 88.1Z" fill="#1F538F"/>
<path d="M80.8008 70.3V82.4C82.8008 82.9 84.4008 84.2 85.5008 85.8C90.6008 80.9 94.2008 74.4 95.7008 67.2C93.5008 67.2 91.5008 66.3 90.1008 64.8L80.8008 70.3Z" fill="#1F538F"/>
<path d="M48.5992 84.6L56.3992 80L30.7992 65.6C29.3992 67.1 27.3992 68.1 25.1992 68.2C26.7992 75.3 30.4992 81.5 35.5992 86.3C36.9992 83.8 39.6992 82.2 42.6992 82.2C44.9992 82.1 47.0992 83.1 48.5992 84.6Z" fill="#1F538F"/>
<path d="M50.5984 31.5L60.8984 37.3L70.6984 31.7C70.4984 31 70.3984 30.2 70.3984 29.5C70.3984 28.2 70.6984 26.9 71.2984 25.8C67.7984 24.7 64.0984 24.1 60.2984 24.1C56.6984 24.1 53.1984 24.6 49.8984 25.6C50.4984 26.8 50.8984 28.1 50.8984 29.5C50.8984 30.1 50.7984 30.8 50.5984 31.5Z" fill="#1F538F"/>
</svg>
